swing
nRows=4
nColumns=135

# SIMM Motion File Header:
name swing
datacolumns 135
datarows 4
otherdata 1
range 0.20000000000000001000 0.25000000000000000000
endheader
time	hip_angle_r	knee_angle_r	ankle_angle_r	pelvis_tilt	tib_tx_r	tib_ty_r	pat_angle_r	pat_tx_r	pat_ty_r	subtalar_angle_r	mtp_angle_r	R.ASIS_tx	R.ASIS_ty	R.ASIS_tz	L.ASIS_tx	L.ASIS_ty	L.ASIS_tz	V.Sacral_tx	V.Sacral_ty	V.Sacral_tz	R.Thigh.Upper_tx	R.Thigh.Upper_ty	R.Thigh.Upper_tz	R.Thigh.Front_tx	R.Thigh.Front_ty	R.Thigh.Front_tz	R.Thigh.Rear_tx	R.Thigh.Rear_ty	R.Thigh.Rear_tz	L.Thigh.Upper_tx	L.Thigh.Upper_ty	L.Thigh.Upper_tz	L.Thigh.Front_tx	L.Thigh.Front_ty	L.Thigh.Front_tz	L.Thigh.Rear_tx	L.Thigh.Rear_ty	L.Thigh.Rear_tz	R.Shank.Upper_tx	R.Shank.Upper_ty	R.Shank.Upper_tz	R.Shank.Front_tx	R.Shank.Front_ty	R.Shank.Front_tz	R.Shank.Rear_tx	R.Shank.Rear_ty	R.Shank.Rear_tz	L.Shank.Upper_tx	L.Shank.Upper_ty	L.Shank.Upper_tz	L.Shank.Front_tx	L.Shank.Front_ty	L.Shank.Front_tz	L.Shank.Rear_tx	L.Shank.Rear_ty	L.Shank.Rear_tz	R.Heel_tx	R.Heel_ty	R.Heel_tz	R.Midfoot.Sup_tx	R.Midfoot.Sup_ty	R.Midfoot.Sup_tz	R.Midfoot.Lat_tx	R.Midfoot.Lat_ty	R.Midfoot.Lat_tz	R.Toe.Tip_tx	R.Toe.Tip_ty	R.Toe.Tip_tz	L.Heel_tx	L.Heel_ty	L.Heel_tz	L.Midfoot.Sup_tx	L.Midfoot.Sup_ty	L.Midfoot.Sup_tz	L.Midfoot.Lat_tx	L.Midfoot.Lat_ty	L.Midfoot.Lat_tz	L.Toe.Tip_tx	L.Toe.Tip_ty	L.Toe.Tip_tz	Sternum_tx	Sternum_ty	Sternum_tz	R.Acromium_tx	R.Acromium_ty	R.Acromium_tz	L.Acromium_tx	L.Acromium_ty	L.Acromium_tz	R.Bicep_tx	R.Bicep_ty	R.Bicep_tz	L.Bicep_tx	L.Bicep_ty	L.Bicep_tz	R.Elbow_tx	R.Elbow_ty	R.Elbow_tz	L.Elbow_tx	L.Elbow_ty	L.Elbow_tz	R.Wrist.Med_tx	R.Wrist.Med_ty	R.Wrist.Med_tz	R.Wrist.Lat_tx	R.Wrist.Lat_ty	R.Wrist.Lat_tz	L.Wrist.Med_tx	L.Wrist.Med_ty	L.Wrist.Med_tz	L.Wrist.Lat_tx	L.Wrist.Lat_ty	L.Wrist.Lat_tz	R.Toe.Lat_tx	R.Toe.Lat_ty	R.Toe.Lat_tz	R.Toe.Med_tx	R.Toe.Med_ty	R.Toe.Med_tz	L.Toe.Lat_tx	L.Toe.Lat_ty	L.Toe.Lat_tz	L.Toe.Med_tx	L.Toe.Med_ty	L.Toe.Med_tz	R.Temple_tx	R.Temple_ty	R.Temple_tz	L.Temple_tx	L.Temple_ty	L.Temple_tz	Top.Head_tx	Top.Head_ty	Top.Head_tz
      0.20000000000000001000	     23.56866304307158400000	    -54.93517242641687700000	      3.88686641331904870000	      0.00000000000000000000	      0.00439258534696031040	     -0.47444983873242275000	     17.26610138090375200000	      0.04428923741229346500	     -0.02311152499295659700	      0.00000000000000000000	      0.00000000000000000000	     -0.02686219060000000200	     -0.03102375010000000100	      0.12844783650000000000	     -0.02686219060000000200	     -0.03102375010000000100	     -0.13249116829999999000	     -0.22593130619999999000	     -0.03102375010000000100	      0.01368554430000000000	      0.03049976009999999900	     -0.34119455900000001000	      0.16953838260000001000	      0.11257243580000000000	     -0.37195392750000000000	      0.07921742589999999900	      0.06835424530000000500	     -0.45744782610000001000	      0.15772809890000000000	     -0.10971377570000000000	     -0.32561635340000000000	     -0.19712382550000002000	     -0.02035140140000000000	     -0.37474004680000000000	     -0.13694825250000001000	     -0.12040951990000001000	     -0.43656781740000006000	     -0.18279821450000000000	      0.00447371169999999980	     -0.60010579359999994000	      0.13440575730000001000	      0.06371729510000000200	     -0.66485563400000003000	      0.08394737720000000600	     -0.02002987050000000100	     -0.68408164680000005000	      0.13503856210000001000	     -0.15768333110000002000	     -0.65121980980000005000	     -0.18829540330000000000	     -0.11401290760000000000	     -0.70830574560000004000	     -0.13871101100000002000	     -0.18158295220000001000	     -0.69129022239999993000	     -0.19671292869999998000	     -0.22313130920000002000	     -0.91373305730000010000	      0.01798808620000000300	     -0.08868507900000000000	     -0.97301556119999999000	      0.00049039940000000001	     -0.11794561630000000000	     -0.99274483930000001000	      0.10002151910000001000	      0.01808534610000000000	     -1.06829840199999990000	      0.04676072240000000300	     -0.28555439380000003000	     -1.01677798400000000000	     -0.12052268450000000000	     -0.11621554990000001000	     -1.02832855100000000000	     -0.09078488440000000200	     -0.13361765090000000000	     -1.02398997700000010000	     -0.19245345540000000000	     -0.00522599549999999950	     -1.05351043699999990000	     -0.12950205960000000000	      0.00391689190000000030	      0.27730592250000002000	      0.01434042170000000100	     -0.10187365710000000000	      0.35529823820000001000	      0.22562184680000000000	     -0.05178396109999999800	      0.40476812760000003000	     -0.18707922290000001000	     -0.12342356230000000000	      0.15568578959999999000	      0.26105611309999999000	     -0.00899175689999999990	      0.17069470000000000000	     -0.22755538250000001000	     -0.18254406270000001000	      0.06000395089999999800	      0.28156031980000001000	     -0.04341045689999999800	      0.07114016569999999400	     -0.27405539179999999000	     -0.07687721250000000000	     -0.18777558500000002000	      0.27356539290000004000	     -0.12144048830000000000	     -0.19817999500000000000	      0.31937136440000002000	      0.11237872190000001000	     -0.12512321609999999000	     -0.22002021240000000000	      0.07612312230000001200	     -0.14547145250000001000	     -0.28285188880000001000	     -0.05535918389999999700	     -1.05957387100000000000	      0.11680168890000001000	     -0.02630030060000000000	     -1.04327836000000000000	      0.01267356320000000000	     -0.07151468789999999900	     -1.05146274100000010000	     -0.20444666770000000000	     -0.05533232480000000600	     -1.05346219000000010000	     -0.10303296530000000000	      0.07253771790000000700	      0.49589402310000003000	      0.11439969020000000000	      0.08569420419999999900	      0.51125930490000004000	     -0.02309974679999999800	      0.07398836799999999900	      0.67826954800000006000	      0.06757339620000001000
      0.21666666700000001000	     24.59799015290169100000	    -50.64799992987908400000	      4.54614605403342240000	      0.00000000000000000000	      0.00392889968425500900	     -0.47322914601606469000	     17.10662899709852900000	      0.04549637488870401200	     -0.02327452042154393900	      0.00000000000000000000	      0.00000000000000000000	     -0.02670751930000000300	     -0.03116579380000000100	      0.12851509270000000000	     -0.02670751930000000300	     -0.03116579380000000100	     -0.13227764379999998000	     -0.22544514960000001000	     -0.03116579380000000100	      0.01482941810000000000	      0.03614749120000000000	     -0.33766256429999997000	      0.16968180240000003000	      0.11674917630000001000	     -0.36814886550000003000	      0.07783590370000000000	      0.07528245440000000400	     -0.45332487640000002000	      0.15790030180000000000	     -0.11417192780000000000	     -0.32515691149999998000	     -0.19587431110000000000	     -0.02544522900000000300	     -0.37545391289999996000	     -0.13670233179999999000	     -0.12668353430000001000	     -0.43633183339999998000	     -0.18098324869999999000	      0.01780175510000000000	     -0.60291323539999997000	      0.13290371470000001000	      0.08115843270000000500	     -0.66251310390000007000	      0.08413642100000000300	     -0.00040232400000000002	     -0.68856480070000003000	      0.13461835520000001000	     -0.16710387480000000000	     -0.65039554990000004000	     -0.18524758050000001000	     -0.12366590490000000000	     -0.70748686150000006000	     -0.13593583030000000000	     -0.19120369990000000000	     -0.69039457970000007000	     -0.19345603130000000000	     -0.17916263539999999000	     -0.93846314840000000000	      0.01749684329999999900	     -0.03924025989999999800	     -0.98354153300000002000	      0.00220791419999999970	     -0.06758293420000000000	     -1.00577038600000000000	      0.10152765890000001000	      0.07587053339999999500	     -1.06741591300000000000	      0.05119001980000000000	     -0.29637087810000001000	     -1.01641517499999990000	     -0.11577631480000000000	     -0.12808760499999999000	     -1.02719097400000000000	     -0.09036489950000001200	     -0.14398885310000001000	     -1.02567897600000000000	     -0.18893889510000000000	     -0.01668399320000000000	     -1.05201513800000000000	     -0.12592287520000001000	      0.00440081300000000080	      0.27768595990000000000	      0.01462967770000000100	     -0.10183533370000000000	      0.35503895290000004000	      0.22608320660000000000	     -0.05299118419999999900	      0.40471988820000004000	     -0.18641051759999999000	     -0.12291833610000001000	      0.15596551370000000000	      0.26100588310000000000	     -0.00785729480000000110	      0.17154820290000000000	     -0.22737410350000001000	     -0.18379280549999999000	      0.06047788950000000700	      0.28125701340000003000	     -0.04085572109999999900	      0.07122672430000000200	     -0.27410227360000000000	     -0.07556145019999999100	     -0.18679659640000001000	      0.27412978859999998000	     -0.12187255110000000000	     -0.19774163179999998000	      0.31885729940000002000	      0.12304574259999999000	     -0.11728208590000000000	     -0.21622460300000002000	      0.08752088700000000600	     -0.14007449900000002000	     -0.27949701950000005000	      0.00241280969999999990	     -1.06512699199999990000	      0.12103210420000000000	      0.02937535790000000300	     -1.04719854700000000000	      0.01640520150000000100	     -0.08282491460000000700	     -1.05018421300000010000	     -0.20083248530000000000	     -0.06673712780000000400	     -1.05216061399999990000	     -0.09931983049999999800	      0.07192159470000000800	      0.49723181049999998000	      0.11452145390000000000	      0.08420948870000000100	      0.51283652479999997000	     -0.02344017760000000100	      0.07121073910000000300	      0.67945505330000000000	      0.06766156489999999900
      0.23333333300000000000	     24.93810806298166600000	    -45.46834213321304900000	      4.91105550493983680000	      0.00000000000000000000	      0.00326777936198845370	     -0.47183792022629467000	     16.84273431241726700000	      0.04690188541264159200	     -0.02347990586019504600	      0.00000000000000000000	      0.00000000000000000000	     -0.02661201099999999800	     -0.03123840660000000100	      0.12835132590000001000	     -0.02661201099999999800	     -0.03123840660000000100	     -0.13240117120000000000	     -0.22578311339999999000	     -0.03123840660000000100	      0.01379843580000000000	      0.03747142530000000000	     -0.33644759490000004000	      0.16802974280000002000	      0.11907725290000001000	     -0.36609587380000003000	      0.07465577630000000400	      0.07781641840000000400	     -0.45212656559999997000	      0.15406086110000000000	     -0.11876925169999999000	     -0.32400256730000004000	     -0.19710310490000002000	     -0.02993764170000000000	     -0.37590742030000002000	     -0.13730868150000000000	     -0.13513268679999998000	     -0.43490112549999999000	     -0.18120973779999999000	      0.02230906790000000000	     -0.60646388669999995000	      0.12997429020000001000	      0.09556513250000001100	     -0.66098787700000006000	      0.08229379389999999500	      0.01522223680000000000	     -0.69443036830000004000	      0.13057646660000000000	     -0.17802674070000002000	     -0.64849137950000002000	     -0.18634611630000000000	     -0.13457376869999998000	     -0.70570933660000001000	     -0.13805592450000001000	     -0.20206603720000002000	     -0.68834162170000002000	     -0.19492325760000001000	     -0.13576552980000001000	     -0.96186321720000001000	      0.01118928160000000000	      0.00810081019999999920	     -0.99204127960000010000	     -0.00044761850000000000	     -0.02001163560000000100	     -1.01709537000000010000	      0.09833638510000000700	      0.12993378319999999000	     -1.06404192499999990000	      0.05231736730000000100	     -0.31001697730000000000	     -1.01495042600000000000	     -0.11739584120000000000	     -0.14388140250000001000	     -1.02514287599999990000	     -0.10219341980000000000	     -0.15521211299999998000	     -1.02893935200000010000	     -0.19136116960000002000	     -0.03073463980000000100	     -1.04997643300000010000	     -0.12746537110000000000	      0.00454134499999999960	      0.27717619820000000000	      0.01545612810000000100	     -0.10190040450000000000	      0.35397041520000000000	      0.22666455199999999000	     -0.05286132829999999600	      0.40507618350000002000	     -0.18532396230000001000	     -0.12538780790000001000	      0.15483147200000000000	      0.26032238949999997000	     -0.00603724050000000070	      0.17306558499999999000	     -0.22679949190000001000	     -0.18687220090000001000	      0.05964275909999999800	      0.27965613940000000000	     -0.03676374590000000600	      0.07187125369999999800	     -0.27429868900000004000	     -0.07880447959999999100	     -0.18798041360000001000	      0.27215912619999999000	     -0.12568095850000000000	     -0.19852642330000000000	      0.31630982499999999000	      0.13190249330000001000	     -0.10926036660000001000	     -0.21319712650000000000	      0.09927845250000000300	     -0.13496699760000003000	     -0.27595621900000000000	      0.05295910080000000600	     -1.06874358800000000000	      0.12029841260000002000	      0.08222353409999999500	     -1.04876718200000000000	      0.01619438380000000000	     -0.09632634810000000000	     -1.04786570400000010000	     -0.20272380349999999000	     -0.08061550089999999800	     -1.05015371300000000000	     -0.10110563770000000000	      0.07118867769999999400	      0.49731706650000002000	      0.11646018560000000000	      0.08427135839999999600	      0.51398634139999999000	     -0.02122647370000000200	      0.06854724580000000300	      0.67975287200000001000	      0.07031565740000000900
      0.25000000000000000000	     25.53062674194986700000	    -40.16977598553094700000	      5.33294862759981130000	      0.00000000000000000000	      0.00251345268368018990	     -0.47052077324866554000	     16.47871505901929700000	      0.04827731471692682500	     -0.02370324865482787200	      0.00000000000000000000	      0.00000000000000000000	     -0.02640611510000000200	     -0.03142209039999999800	      0.12820368409999999000	     -0.02640611510000000200	     -0.03142209039999999800	     -0.13194898020000001000	     -0.22472400719999999000	     -0.03142209039999999800	      0.01481596930000000100	      0.03988361179999999600	     -0.33526092660000001000	      0.16756432000000002000	      0.12067268210000001000	     -0.36377837029999999000	      0.07307076889999999900	      0.08155113719999999800	     -0.44985699949999997000	      0.15384798570000002000	     -0.12208920510000000000	     -0.32341499990000000000	     -0.19545413049999999000	     -0.03407603480000000200	     -0.37621900559999999000	     -0.13636048579999999000	     -0.13803957340000000000	     -0.43373752220000000000	     -0.18017330290000003000	      0.03658902090000000500	     -0.61134954910000006000	      0.12832085830000001000	      0.11137528369999999000	     -0.65756420960000006000	      0.08180080769999999200	      0.03351867630000000100	     -0.69912554279999994000	      0.13004583740000000000	     -0.18558844880000000000	     -0.64690030790000008000	     -0.18357914800000000000	     -0.14268244780000000000	     -0.70442789010000006000	     -0.13434582320000002000	     -0.21049985990000000000	     -0.68679686510000004000	     -0.19191284049999999000	     -0.08558073640000001000	     -0.98234750420000005000	      0.01053446770000000100	      0.06052432559999999800	     -0.99651192100000008000	      0.00199438349999999990	      0.03361315900000000400	     -1.02409183700000010000	      0.10057143940000000000	      0.18840331960000001000	     -1.05517698300000020000	      0.05823280909999999800	     -0.31994475820000001000	     -1.01391672400000000000	     -0.11238013499999999000	     -0.15670148540000001000	     -1.02291322000000000000	     -0.11362759000000000000	     -0.16199664910000003000	     -1.03420374900000000000	     -0.18814004910000001000	     -0.04053621600000000700	     -1.04747286300000010000	     -0.12393561400000000000	      0.00467454570000000020	      0.27756869360000003000	      0.01541040510000000000	     -0.10199357430000001000	      0.35397502150000004000	      0.22710198030000001000	     -0.05387292999999999900	      0.40543445810000001000	     -0.18522920510000002000	     -0.12535145710000001000	      0.15552376580000002000	      0.26010308059999998000	     -0.00742529120000000060	      0.17433913490000000000	     -0.22581488370000000000	     -0.18692141460000000000	      0.05989329860000000600	      0.27968864370000002000	     -0.03503803850000000000	      0.07252109900000000600	     -0.27438469980000002000	     -0.07696335199999999900	     -0.18698885760000000000	      0.27177979219999998000	     -0.12452650230000001000	     -0.19845906059999999000	      0.31618608149999999000	      0.13980511020000000000	     -0.10116715090000000000	     -0.21044819940000001000	      0.10848999399999999000	     -0.12879894700000000000	     -0.27282758209999997000	      0.11143790860000000000	     -1.06814381699999990000	      0.12500262390000000000	      0.13976410010000001000	     -1.04540479800000010000	      0.02088002170000000100	     -0.10635891610000001000	     -1.04571884200000010000	     -0.19910068810000001000	     -0.08995549490000000200	     -1.04768192700000020000	     -0.09756488220000000800	      0.06876481200000000800	      0.49936279039999998000	      0.11653432330000001000	      0.08323798379999999800	      0.51606827729999993000	     -0.02092983190000000100	      0.06431221930000000100	      0.68046941130000005000	      0.07014507899999999900
